<svg xmlns="http://www.w3.org/2000/svg" viewBox="0 0 801.51 10.12"><defs><style>.a{fill:#00477c;}</style></defs><title>wave</title><path class="a" d="M786.38,0c-7.57,0-7.57,6.2-15.13,6.2S763.69,0,756.13,0,748.56,6.2,741,6.2,733.43,0,725.86,0s-7.56,6.2-15.13,6.2S703.17,0,695.61,0,688,6.2,680.47,6.2,672.91,0,665.35,0s-7.56,6.2-15.13,6.2S642.65,0,635.09,0,627.52,6.2,620,6.2,612.39,0,604.83,0s-7.56,6.2-15.13,6.2S582.13,0,574.57,0,567,6.2,559.44,6.2,551.88,0,544.31,0s-7.57,6.2-15.13,6.2S521.61,0,514,0s-7.56,6.2-15.13,6.2S491.35,0,483.79,0s-7.56,6.2-15.13,6.2S461.09,0,453.53,0,446,6.2,438.39,6.2,430.83,0,423.27,0s-7.58,6.08-14.94,6.19C401,6.08,400.88,0,393.38,0H393V0c-7.17.22-7.32,6.18-14.75,6.18S370.69,0,363.13,0,355.56,6.2,348,6.2,340.43,0,332.86,0s-7.56,6.2-15.13,6.2S310.17,0,302.61,0,295,6.2,287.47,6.2,279.91,0,272.35,0s-7.56,6.2-15.13,6.2S249.65,0,242.09,0,234.52,6.2,227,6.2,219.39,0,211.83,0s-7.56,6.2-15.13,6.2S189.13,0,181.57,0,174,6.2,166.44,6.2,158.88,0,151.31,0s-7.57,6.2-15.13,6.2S128.61,0,121,0s-7.56,6.2-15.13,6.2S98.35,0,90.79,0,83.22,6.2,75.66,6.2,68.09,0,60.53,0,53,6.2,45.39,6.2,37.83,0,30.27,0,22.7,6.2,15.13,6.2,7.57,0,0,0V10.12H801.51V6.2C793.95,6.2,793.95,0,786.38,0Z"/></svg>