<svg xmlns="http://www.w3.org/2000/svg" viewBox="0 0 809.03 84.15"><defs><style>.a{fill:#6c0;}</style></defs><title>logo</title><path class="a" d="M164.17,19.07c-1.48,1.26-4,1.57-16.89,3.82a10.94,10.94,0,0,0-2.56,1.06c-3,0-7.91,2.24-9.36,3-.61.34-1.35,2-1.58,5.18.86,1,1.31,1,2.42,1,6.19,0,15-3.11,16.11-2.92,4,.89,5.89,7.1,5.89,10.3a21,21,0,0,1-.48,2.55c-.5,1.35-2.92,2.47-5.85,2.74-13.92,1.27-20.43,2.35-22,3.48A5.12,5.12,0,0,0,129,51.9c0,3.28,7,4.13,8.16,4.13,4.32,0,6.48-2.3,8.06-2.3,1.89,0,5.77,4.58,5.77,9.72,0,3.38-2,8.9-10.59,8.9-2.24,0-11.71-1.67-18.52-6.45,0,0,.2-1.38-2.65-3.41a31.48,31.48,0,0,1-2.73-11.94c0-9.9,4.9-16.48,5.56-20.32,0,0-2.33-3.28-3.24-4.49-.5-.67-1-1.24-1-3.72,0-7.72,5.06-9.17,5.31-9.17l1.76,0s3.74-1.72,4.25-2.43l2.77-.19c1.64-.21,20.18-5,23.87-5,3,0,4.1.48,5.27,2.29.78,1.2,3.93,7,3.93,9A5.52,5.52,0,0,1,164.17,19.07Z"/><path class="a" d="M173.36,49.16a6.76,6.76,0,0,0-1,2.9c-.14,1.18,4.18,3.06,8.1,3.26,11.46.59,10-4.7,13.34-3,2.19,1.09,4.13,6.62,4.13,9.85,0,7.42-7.22,9.51-13.62,9.51a40.64,40.64,0,0,1-16.64-4.1s-6.76-8.42-6.76-14.47c0-13.89,7.38-29.19,7.75-29.91,0,0,.61-4,1-6.58.41-2.93,2.37-3.52,4-5.35,3.75-.38,10.42-3.34,31.35-5.61,2.64-.29,5.93,3.37,7.71,8.92.31,1-.2,4.86-1.52,5.27-.79.24-2.88.48-19.81,2.25-2.91.3-5.94.8-7.15,1.66s-3.94,5.27-4.31,6.71.38,2.27,2.27,2.07c8.92-.95,14.94-4.85,15.62-4.85,3.19,0,6.21,4.24,7.1,8.88.52,2.71-.2,5-1.07,5.53-2.6,1.69-6.77,2.75-11.19,3.61a14.27,14.27,0,0,1-4.06.24c-.38,0-1.31.61-1.85.69C180.3,47.51,174.49,48,173.36,49.16Z"/><path class="a" d="M365.78,12.85c0,3.47-1,5.75-2.24,6.22-5.45,2.09-23.75,4.69-32.2,7.51-1.54.51-4.28,5.11-4.28,6.9,0,.92,1.06,1.23,2.64,1,12.2-1.61,14.32-2.66,19.41-4.94a4.16,4.16,0,0,1,2.78.92c1.46,1.57,3,4.65,3,9.14,0,2.74-1.21,5.63-6,6.36-6.32,1-20.85,3.1-25.1,3.61-2.14.26-3.38.81-3.57,1.09-1.91,2.76-1.16,8.54,11.88,5.69,5.47-1.2,6.56-3.21,9.65-3.21a3.52,3.52,0,0,1,.8.11c2.66,2.25,3.24,4.94,3.24,8.6,0,4.36-1.87,7.27-5.73,9.24a13.91,13.91,0,0,1-1.9.47,29.29,29.29,0,0,1-2.75,1.25,19.62,19.62,0,0,1-4.85.73c-8.94,0-23.18-4.11-23.18-20.64,0-15,10.18-25.45,12.88-35.36a11.66,11.66,0,0,0,1.36-1.71c.19-1.71,1.73-5.7,3.66-5.9C330,9.43,344.76,6.23,357.74,2a3.11,3.11,0,0,1,2.89.35A14.24,14.24,0,0,1,365.78,12.85Z"/><path class="a" d="M114.65,56.07c-2.65-3-11.21-7.69-14.14-10.69,1.27-1.44,8.13-11.11,8.13-18.75,0-10.8-7.83-23.73-18.37-23.73,0,0-3.07.05-6.79.35-.68,1-2.92.81-2.92.81-3.7,1.66-7.13,4.45-7.13,13.38,0,1.6,2.24,3.26,3.59,4.5a46.9,46.9,0,0,1-2.56,11.16c-.48,1.21-3.89,1.69-3.89,1.69l-1.8,2.33c-1.17,6.93,0,7.76,2.41,10.87.32,3.66-1.11,10-1.11,13.6,0,2.6,1,2.31.47,5a3.24,3.24,0,0,1,.61,1.06,8,8,0,0,0,7.05,5.17c3.08,0,4.39-2.33,4.39-3.42,0-3.08-.79-12.48-.72-13.34a9.48,9.48,0,0,1,1.49-4.6c2,0,11,8.17,18.72,16a8.64,8.64,0,0,0,5.52,2.39c4.68,0,6.6-5.28,7.94-6.49C116.27,62.4,116.36,58,114.65,56.07ZM87.8,35.26a3,3,0,0,1-2-.39S88.22,21,88.42,18c3.34-.93,7.77.91,7.77,5.32C96.19,27.15,94.43,31.71,87.8,35.26Z"/><path class="a" d="M307.5,6.68l-3.36-1-1.73-.88c-4.5-.88-15.36-1.06-19-.68a26,26,0,0,1-4-.76,27,27,0,0,1-5.1,2.3A10.94,10.94,0,0,1,272,5c-2.57.2-9.33,1.8-12.39,3.62a8.19,8.19,0,0,0-2.81,3.3l-.06.12c-.11.25-.52.67-.59,0h0a13.34,13.34,0,0,0-.3-1.85C255,7,251,4.57,248.66,4.57c-1,0-3,1.08-3.18,2.24-.23,1.46-.39,8-1.08,14.37-.07.64-.08,12.62-1.28,16.61-.28.06-1.12.37-1.39,0-3-4.53-10.88-12.37-11.55-17.57-.62-4.79.17-12.34-2.3-14.29A19.69,19.69,0,0,0,221,3.84a5.23,5.23,0,0,0-4.28,2l-.2,1.45-1.37,2.07c-.41,1.34-.65,3.65-.79,8.61l1.15,5.9a4.42,4.42,0,0,1-1,2.54l.3,4.55c0,5.12-4.68,22.72-4.68,28,0,11.92,10.41,10.94,11,10.44a10.92,10.92,0,0,0,2.31-3.91c.7-7,1.42-19.06,3.33-22.59.39-.72,1.38-1.07,1.89-.59,1.67,1.57,3.51,5.11,3.75,5.44,1.85,2.63,7.25,9.18,8.27,15.07.08.49,0,1.68.15,2.6a10.46,10.46,0,0,0,3.92,6.6c.74.62,3.7,1,5.68.64S256,72,256,62.68c0-6-1-8.46-.91-9.62a270.23,270.23,0,0,0,1.41-27.54,20,20,0,0,1-1-2.22,22.17,22.17,0,0,0,.64-3.07h0c.05-.38.25-.66.4-.35h0c.11.22.24.47.39.7a5.52,5.52,0,0,0,4.6,2.28c3.3,0,7.63-3.87,10.63-3.17.41.1.85-.63,3.2-.83a71.85,71.85,0,0,1-.31,8.84c-.18,2-1.09,2.43-4.78,2.43a3,3,0,0,0-2.6,1.94,37.64,37.64,0,0,0-1.44,7.71c0,2.91,3.25,6.66,7.2,7.72.25,1.22-.93,10.62-.93,15.35s1.13,6.87,1.33,7.06,3.62,2.72,6.19,2.72c1.93,0,4.11-1.11,4.49-1.88a9.45,9.45,0,0,0,.83-4c.25-10.81,1.46-22.21,2.82-22.61a59.9,59.9,0,0,0,19.22-9c3.31-2.41,7.48-7.42,7.48-12.44C314.87,16.07,310.61,8.67,307.5,6.68ZM288.42,28.32c-.81,0-1.33-.26-1.54-.93-.77-2.4-1.12-7.48-1.12-10.19,2.83-.59,15.26.18,15.26,3.38C301,23.48,292.66,28.33,288.42,28.32Z"/><path class="a" d="M66.9,45.24c0-1.92-1.88-8.38-3.25-9.92-1.74-1.95-3.78-2.41-6.28-2.41-1.66,0-29.42,4.28-32.9,6.43-1.67,1-2.29,3.39-2.29,6.82,0,4.8,3.17,6.94,4.07,6.94,2,0,16.12-2.73,21.19-3.68,1-.19,1.45.24,1.43.66a5.67,5.67,0,0,1-.9,3.29,17.28,17.28,0,0,1-7.49,4.37c-4-.77-7.37,2.63-11.38.65-1.73,0-4.23,1.23-5.42-.71-4-.9-8.33-1.18-11.56-3.85a5.24,5.24,0,0,1-1.54-4.17c0-4.36,6.51-15.56,17.58-26,2.3-2.16,10.55-8.21,14.18-8.21,2.43,0,3.28,5.42,5.21,7.47.48.51,2.49.56,3.49.13,2.13-.92,3.8-2.07,3.8-4.57a20.48,20.48,0,0,0-4-12.39C49.67,4.72,44.23,2.38,42,2.38c-4.65,0-6.84,2.76-8.55,2.83a58.21,58.21,0,0,0-11.57,9.38,3.33,3.33,0,0,1-1.24.67,9.66,9.66,0,0,1-1.12,2.52c-.25.16-2.68,1.76-2.68,1.76C13.72,22.62,0,39.77,0,46.19c0,6,4,14.42,5.47,15.79,5,4.69,14.35,8,24.86,8a38.07,38.07,0,0,0,16.27-4h0c.5-.29.84-.25.79.3s-.16,1.47-.2,2.16-.39,4.32-.39,6.76c0,4.27,1.16,6.46,2.33,7.59.54.52,4.13,1.41,6.48,1.41a5.79,5.79,0,0,0,4.85-5.56c0-2.22-.25-5.2-.21-5.92C61.28,53.62,66.9,48.38,66.9,45.24Z"/><path class="a" d="M520.79,13.29c-1-4.61-4.58-8.83-7.59-9.51-2.71.61-24.95,4.87-39.56,6.79-2,.26-4.5.36-4.5.36l-1.67.85A10.8,10.8,0,0,0,463.17,13a12.86,12.86,0,0,0-5.12,8.28l.29,3.82c-4.52,9-7.56,16.18-7.56,26,0,.19,0,.41,0,.63,0,.72-.07,1.08-.27.9a9.87,9.87,0,0,0-.83-1.12c-1.74-2-2.32-2.26-3.13-2.26-2.4,0-4.21,4.51-12.29,4.51-7.27,0-20.9-7.61-20.9-11.59,0-8.74,11.64-19.66,20.3-19.66,1.52,0,1.91.43,1.91,1.47,0,1.73-1.3,4.43-1.3,6.14,0,4.17,6.28,7.17,9.58,7.17,1,0,7.72-2.49,7.72-12.33,0-5.78-4.22-15.31-11.14-15.31-8.71,0-21.77,4.62-30.51,10.72a6.14,6.14,0,0,1-1.22,1.79,34.14,34.14,0,0,1-2.87,2.14,39.14,39.14,0,0,0-4.31,7.52c-.17.38-.36.87-.55,1.38h0c-.37,1-1,1.34-1.13.75s-.11-1.15-.17-2a65.08,65.08,0,0,0-1.17-8.72s-1-2.64-1.23-3.84c-.07-.34-.11-1.8-.11-1.8-2-7.8-6.82-12.91-7.49-13.16-3.16-1.15-4-1.45-5.33-.57-5.4,3.45-11.74,13.94-21.5,31.95a17.75,17.75,0,0,1-3.77,3.08,13.47,13.47,0,0,1-.17,5c-1.94,6.2-7.56,14-7.3,15.57l.31,1.89-.22,2.24c0,1.44,4.45,6.64,8.16,6.64a3.74,3.74,0,0,0,.86-.09c3.73-3.31,4.81-9.76,8.14-15.17.37-.6.49-.7,1.39-1a48,48,0,0,1,8.38-1.77,11.12,11.12,0,0,1,3.56.18l1.66-.55c1.56-.09,2.39.38,2.39,1.63,0,6.1.13,11.08.54,12.94.65,2.93,3.37,4.94,8.75,5.35A5.57,5.57,0,0,0,399,68.49c1.07-3.11.41-7,.41-10.43,0-5.06.16-8.07.29-9.72.12-.55.52-.72.69-.2h0A17.88,17.88,0,0,0,403.06,53c6.71,8,18.06,17.36,33.91,18.35,6.32.4,11-2.82,13.41-9,.53-1.35.9-2.53,1.1-3.2.13-.18.37-.12.55.21h0a18.22,18.22,0,0,0,1.68,2.48c5.45,6.86,13.19,9,22.95,7.52,10.87-1.64,12.35-2.75,13.27-3.95,1.51-2,2.09-4.92,2.3-7.28.16-1.75.38-3.82-1.1-5.3-1.68-1.68-6.9,0-13.78,1.19-9.11,1.55-12.94-2.3-12.84-3.48.07-.71.42-2.15,1.35-2.38a10,10,0,0,1,3.62.35,68.87,68.87,0,0,1,9.22-1c1.4,0,3,.21,3.6.23,0,0,6-.44,9.54-1.15,2.18-.43,4.16-2.36,4.34-3.55.53-3.5.14-5.61-.52-7-2.51-5.17-5.49-5.76-6.12-5.62-3.17.67-9.52,2.54-18,2.1a1.93,1.93,0,0,1-1.58-2.08c.27-2.2,3-5.82,5.56-6.31,6.84-1.31,27.09-3.33,34.53-3.7,4.66-.23,9.56,1.19,10.49-.39C521.57,18.25,521.05,14.47,520.79,13.29ZM386.85,34.36c-.55,1.08-3.8,1.89-9.27,2-.24,0-.51-.48-.38-.79,2.26-5.39,6.64-14.87,7.23-14.94a2.42,2.42,0,0,1,1.93.74C387.49,22.77,387.55,33,386.85,34.36Z"/><path class="a" d="M547.71,50.61c3,3.23,5.35.54,8.8-1.32l3.19-1.36a1.49,1.49,0,0,0,.24.84c.84,1.09,2,.39,3.61.15a4.1,4.1,0,0,0,2.39-1.23,14.55,14.55,0,0,0,1.18-1.81c.37-.73-.19-2.64-.19-2.64a6.58,6.58,0,0,0-.78-3.26,3.14,3.14,0,0,0-2.58-1.23c-.92-.14-1-.28-1.8-.37a1.4,1.4,0,0,0-1.25.42s-.19,1.52-.28,2.93c-.17.05-.31.07-.51.14-1.47.5-1.68.65-4.22,1.42l4.31-5.12,4.32-5.05c1.9-2.78,2-2.74,1.92-3.93-.09-2.1-1.06-3.84-5.23-4.13a16.72,16.72,0,0,1-4-.71c.79-1.19,5.4-5.14,8-7.71,2-2,4.17-5.82,4.53-8.06,0-.07-.32-1.25-.34-1.31s-1-3.39-3.5-4.2c-2.82-.93-4.14.26-4.28.4l-.23.23V4s-1.23,3.18-2.18,5c-1.1,2.14-1.73,3.35-5.75,8.46,0,0-4,4.45-5.46,5.65-1.61,1.33-1.56,2.43-1.1,4.57.42,1.91,1.73,2,3,2.12,0,0,5.86.11,7,.64a31.25,31.25,0,0,1-3.81,5.81c-2.68,3.47-4.9,5.82-6.83,8.11a3.37,3.37,0,0,0,0,3.5A11.79,11.79,0,0,0,547.71,50.61Zm68.18,13.09c-.8-2.41-.34-2-2.07-3.68l-2-1.91c-4.05-3.18-4.57-3.52-5.28-3.9l-1.7-.38c-1-.55-2.44.28-2.86.39-.73.23-2.55-.35-2.58.34,0,.4-1.07.64,1.34,2.61.74.4,4.26,5.56,6.09,8l2.79,3.84a2.62,2.62,0,0,0,2.64-.13L614,67.79C614.81,66.76,616.17,64.56,615.89,63.71Zm-27-6.45c.78-1.11,0-3,.15-3.41l.15-1.37-1.38-.28A61,61,0,0,1,581,56.31a45.72,45.72,0,0,1-6.89,3.1s-2.83.5-3,1.35C571,62,573,65,573.8,65.55a10.16,10.16,0,0,0,5,1.29c1-.15,1-.71,3.75-2.8l2.58-2.95C586.62,59.47,588.15,58.39,588.93,57.26Zm12.91-5.8,2-.32c.46-.1,1.15-1,3.17-2.22l3.88-2.06c1.2-1.27,3.47-2.83,3.25-4a4.67,4.67,0,0,0-2.78-3l-1.71-.95a5,5,0,0,0-3.68-.52l-.26.09s-.92,1.52-1,1.71a41.88,41.88,0,0,1-5.28,5.47c-.22.14-.44.31-.66.47l.42-4.64a26.56,26.56,0,0,1,.25-2.93c1.38-.44,6-1.09,6.55-1.19,1.89-.29,3.55-.41,5.53-.86,0,0,2.79-.35,2.79-2.69,0-1.43-2.75-4.44-3.06-5-.89-1.51-6,0-7.87.14l-6.24,1.56c1.25-1.28,1-1.42,4.36-5.08,2.37-2.37,5.22-4.25,7-6.83.65-1-.14-2-1.21-3.27-.7-.82-1.28-1.42-1.79-2.14s-.5-1.17-.84-1.67c-.91-1.32-2.18-2.13-3-1.88a34.85,34.85,0,0,1-5,1.42l-.38,0a17.65,17.65,0,0,0,1.09-4.87C597.39,6.18,597,5,597,5S594,.3,593.09.11a3.14,3.14,0,0,0-3.74,1.53l-.2.25,0,.32s-1,3.26-1.72,5.15c-.9,2.22-1.41,3.47-4.87,8.85,0,0-4,5.81-5.31,7.11S576,25.86,576.54,28c.52,1.89,1.55,2.4,2.81,2.42,4.94-1.14,7.5-1.9,8.83-2.09,0,0,.89-.23,1.93-.53-.32.41-.62.81-.88,1.2s-1.76,2.28-3.13,3.93l-3.17.61c-5.54,1-8.17,2-12.66,2.4a6.28,6.28,0,0,0-2,2.34c-1.45,2.25,2.51,4.85,3.39,5.89l4.48-1a1.4,1.4,0,0,0-.36.27L575,45.13l-.16.57a3.69,3.69,0,0,0,.09,2.54c.3,1,1.27,1.39,2.21,1.78l1.37.68a11,11,0,0,0,4.26,1.67,5.51,5.51,0,0,0,4.18-2,3.74,3.74,0,0,0,.79-2.6c-.06-.57.58-.57-9.65-4.73l.07,0a2.59,2.59,0,0,0-.87-.24l5.24-1.22a73,73,0,0,1,9.15-2.1c1.09-1-.22,4.76-.06,7.42-.15,3.16-1.07,9.9-1.8,15.8a19.92,19.92,0,0,1-1,3.25,6.79,6.79,0,0,1-3,2.28,8.1,8.1,0,0,1-1.9.47,23.81,23.81,0,0,0,3.24,3.89s1.9,1.71,3.46.91c1.86-1,4.3-2.2,5-3.49s1.37-3.38,1.37-3.38l.85-9.5a50.27,50.27,0,0,1,.55-6.38C598.62,49.09,600.18,51.83,601.85,51.47Zm-6.08-30.92a8,8,0,0,1-4.18,1.4c-2.28.29-3.35.4-3.6.19a35.76,35.76,0,0,1,3-3.79,1.94,1.94,0,0,0,2,.13,24.43,24.43,0,0,1,4.27-1c.49,0,0,.72,0,1.14A23.92,23.92,0,0,1,595.77,20.55Zm-44.58,43a1.38,1.38,0,0,0-.48-1.36l-.27.52a1.15,1.15,0,0,1-.72.38c-.42,0-.53-.62-.53-.62l-.91-3-.51-2.4a1.28,1.28,0,0,0-.69-1.21c-.77-.42-1.76.28-1.76.28a24.67,24.67,0,0,0-2.56,4.48,23,23,0,0,0-.8,5,3.24,3.24,0,0,0,2.27,3.2,23.56,23.56,0,0,0,4.05.31l2.52-.08c.8,0,.73-1.14.47-2.24A6.16,6.16,0,0,1,551.19,63.59ZM559,54.9c-.48-.56-3.77-.65-3.77-.65l-.72,1.52s-1.47,1.27-1.47,2.39.49,4.28.49,4.28a3,3,0,0,0,1.94,1.87,5.09,5.09,0,0,0,3.16-.56l1.46,0a1.28,1.28,0,0,0,1.46-1.63A28.61,28.61,0,0,0,559,54.9Zm8.61-3.35c-.9-.19-1.27-.17-2.4-.37a5.17,5.17,0,0,0-2.46.39V52a2,2,0,0,1,.67,1.35c0,.78-.44,4.06-.44,4.06s0,1.74.56,2.23a9.2,9.2,0,0,0,2.81.84l1.91-.31A5.91,5.91,0,0,0,570,59.5c.56-.38.4-3.18,0-5.12S568.56,51.74,567.66,51.55Z"/><path class="a" d="M706.78,46.29l-5.23-2.53-1.25-1.24.1-1.45,1.6-4-.36-2,8.07-3.52.45-.21.25-2.92,0-.12c0-.09-1-1.19-2.54-3.42-1.22-1.71-5.66,1-6.2,1.38l-.34.12.09-1.5.23-3.71a12.62,12.62,0,0,0,0-2.76c-.13-.62-1-1.35-1.6-1.76,2.93-1.18,9.26-3.82,9.81-5.28S706,5.81,703.3,4a6.34,6.34,0,0,0-2.89-.64L698.33,4s-4.49,3.81-4.65,4c-3.38,2.48-9.85,6.89-11.66,8a5.32,5.32,0,0,0-1.85,1.65l-.1.61.36.83c.92.71,3.72,3.36,5.11,3.36.64,0,3.23-1,6.57-2.44-.15,2.1-.38,5.65-.62,9.6-7.12,2.83-13.86,5.17-16.33,5.92-2.64.64-3.81.95-6,1.59-.73.2-1.07,3.29-1.07,3.29a10.42,10.42,0,0,0,.54,3.14c.64,1.79,3.52,2.09,5,2.74,2.17,1,8.9-2.87,13.62-4.92l2.22-1c-3.55,5.47-7.92,11.3-9.53,13.22a34.6,34.6,0,0,1-4.43,4.71,26.48,26.48,0,0,1-2.73,1.88c-.32.15-.38,1.23.21,1.86l2.29,1.33a13.34,13.34,0,0,0,4.47.87c1,.05,3.27-1.21,4.83-2.41l2.77-2.76A42.78,42.78,0,0,0,690.24,55c-.42,6.92-1.1,15.56-1.1,15.68l-.34,2,.61.29c.18.1,4.15,1.94,6.83-.1a7.16,7.16,0,0,0,2.48-5.63L699.63,53l6,5.32a3.4,3.4,0,0,0,2.13.4c.83-.28,2.73-3.1,3.14-4.52C712,50.51,710.27,48.84,706.78,46.29Z"/><path class="a" d="M737.66,29.1c-4-2.63-6.82-1.48-7.34-1.22L719,30.93a3.41,3.41,0,0,0-1.06-1l-2.67-2.08-1.3-.37-4.23.6.12,1.92c0,.15,2.07,15.23,2.17,17.56s1,9.64,1,9.94v.17l.13,1.09a3,3,0,0,0,3.56,1.33c1.09-.31,4-.9,5-2.46l.21-.36a14.9,14.9,0,0,0,4.93,2.86c.87.29,3.16-.21,5.48-1.47l3.16-1.9c5.42-3,9-12.79,9.55-16.44S741.66,31.73,737.66,29.1ZM732.9,45.27a15.37,15.37,0,0,1-7,4.79c-.13,0-2,.28-3.62.49-.36-3.33-1-7.41-1.51-10.71,2.08-.65,5.64-1.8,6.5-2.24,1.19-.6,3.65-1.67,5.89-.25a18,18,0,0,1,2,2.56C735.94,41.79,734.2,43.36,732.9,45.27Z"/><path class="a" d="M751.5,22.71l-1.29,1.8.18,1.78L753.26,34c.61,1.51,3.71,5.1,5.1,5.1s7.47-3.16,6.8-4c-.08-.32-4.45-11.59-4.45-11.59l-.13-.15a5.74,5.74,0,0,0-3.78-2A21,21,0,0,0,751.5,22.71Z"/><path class="a" d="M792.5,14.76l.2.94-4.32,6.13a27.79,27.79,0,0,1-4.83,5.51l-.25.22-1.15,3.3,1.5,2.37c.1,0,3,1.68,5.08,1.42,2.23-.28,7.48-6.07,8.6-6.83,3.67-2.52,5.81-4.49,5.71-6.34,0,0,1.48-3.19-5.14-5.66A15.57,15.57,0,0,0,792.5,14.76Z"/><path class="a" d="M808.18,40.68l-1.57-1.87c-.52-1.11-3.16-3.26-4.79-3.39l-3.18,1.38-5,.84c-.88.06-7.78.93-13.71,1.71V38.07l-.12-2.64,0-3.38-.18-3.41.21-5.09-.25-1.31,0-3.21a25.24,25.24,0,0,0-1.29-4.48c7.36-1.29,15.5-2.94,17-3.25l.25,0,.19-.15c.08-.07,2.34-.1,1.77-3.07-.2-1.09-3.42-5.46-4.89-6.28-1.92-1.06-2.54-.15-9.47,1.42-2.06.47-10.57,2.2-14.48,2.81-6,.93-16,1.64-16.08,1.64l-1.33.07.52,1.08c.21.43,2.27,4.94,3.58,6.31,1.51,1.65,7.16.68,10.92,1a21,21,0,0,0,3.61-.24l.14,2c0,.06.26,3,.21,6.14,0,2,.35,3.57-.1,6.59-.15,1.07-.34,4.06-.36,5.1,0,2.95,0,3.13,0,4.62a4.57,4.57,0,0,1,0,.52c-4.87.71-18.23,2.3-18.38,2.31l-3.58.45s-2.41.54-3.22,1.41-.45,2.73,0,4.43l.23.81c.46,1.86,2.48,3.56,3.53,3.5l3.79.3c2.43-.66,12.72-3.19,16.7-4-.22,2.55-.42,5.57-.49,9.22-.11,5.39-1,12.2-1,12.58a6,6,0,0,0,.62,3.23l1.06,1.4,3.29,1.26a6,6,0,0,0,3.76.05c2.23-1.7,2.14-5.44,2.31-6.24s1.24-9.48,1.52-16.28V48.76l10.56-1.21,13.25-.35c.29,0,4.83.7,5.15-1.07A11.66,11.66,0,0,0,808.18,40.68Z"/><path class="a" d="M634.19,55.5c0,.57,2.94,1.44,3.9,1.3,2.86-.39.55-.21,2.64-1.16a51.08,51.08,0,0,1,5.36-1.58s3.39-.69,4.12-1c1.5-.58,4.1-.63,6-1.57l.22-.12c.47.43.91.82,1.19,1.1,1.3,1.37,3.32-1.94,4.6-3.22a13,13,0,0,0,2.65-4.59c1.51-4.58,3-8.81,3.3-11.39a10.28,10.28,0,0,0,.15-1.25c-.09-1.83-2.18-4.21-3.06-4.75-.65-.42-1.91-2.43-2.92-2.16-1.64.45-7.07,2.06-13.39,4,.9-.83,1.83-1.7,2.56-2.35A38.34,38.34,0,0,0,655,22.93c.59-.75,2.41-2.49,2.38-3.7,0-2-1.53-4.51-2.65-6.35-.66-1.11-3.32-.81-5.21.2-2.9.61-4.75,1.82-7.28,2.24.84-1.42,3.54-4.8,3.54-4.8A2.22,2.22,0,0,0,646.21,9c0-.44-.91-2.33-.93-2.59s-1.09-1-2.63-2.52C639.86,1,638.45,2.27,638,2.34l-.59.67-3.4,7c-.74,1.71-5,8.59-6.4,11-1.06,1.88-2.8,4.3-4,6-.79,1.19.33,1.7,2.11,3s5.61.62,6.42.13c.55-.35,1.52-1.62,5.42-7.31.72-.15,7.31-2.44,9.37-2.44.46,0-1.17,2-3,3.83-.95,1.28-5.45,4.91-13.88,9.5l-4.63,2.39-2,.63-3.95,1.23s-2.32.52-2.36,1.37,1,4,2.46,5.11a20.33,20.33,0,0,0,3.66,2l4.64-2c-.4,1-.81,2.24-1.23,3.74-.51,1.87-.43,2.79-1.07,6-.46,2.33-1.23,4.94-1,6.58C625,64,628,65.9,629.36,68c1,1.51,3.86,2.87,5.85,3.66,5.68,2.28,11.13,1.69,17,.67,5.29-.9,10-3.53,11.21-4.57,0,0,2.42-5.15,1.45-7.88-.34-1-2.88-6-3.34-4.83-.82,2.15-3.59,3.59-3.79,3.68a33.23,33.23,0,0,1-6.87,2.89c-3.91,1.25-9.52,2.74-12.52,1.48-4.16-1.71-5-3.22-5-6.36a18.38,18.38,0,0,1,.26-2.33A3.07,3.07,0,0,1,634.19,55.5Zm8.43-13.41c-.45,1.33-1.12,4.08-1.52,5.8l-.93.34a50.73,50.73,0,0,0-5.82,2.25c.59-3.06,1.39-6.59,2.14-9.27l.06-.23,6.65-2A10.94,10.94,0,0,1,642.62,42.09Zm7.63-5.23,3.91-1.17a22.43,22.43,0,0,1,4.16-1.06c1.21-.07.62,2.7-.14,4.9a8.76,8.76,0,0,1-1.8,3.89,9.66,9.66,0,0,0-4.07.4c-1,.3-2,.65-3.06,1a23.34,23.34,0,0,1,1.07-3.56C650.87,39.82,650.37,38.7,650.25,36.86Z"/></svg>